<svg width="16" height="16" viewBox="0 0 16 16" fill="none" xmlns="http://www.w3.org/2000/svg">
<g clip-path="url(#clip0_2237_6110)">
<path d="M16.0011 7.9996C16.0011 12.4176 12.4196 15.9992 8.00155 15.9992C3.58355 15.9992 0.00195312 12.4176 0.00195312 7.9996C0.00195312 3.5816 3.58345 0 8.00155 0C12.4196 0 16.0011 3.5815 16.0011 7.9996Z" fill="url(#paint0_linear_2237_6110)"/>
<path d="M16.0011 7.9996C16.0011 12.4176 12.4196 15.9992 8.00155 15.9992C3.58355 15.9992 0.00195312 12.4176 0.00195312 7.9996C0.00195312 3.5816 3.58345 0 8.00155 0C12.4196 0 16.0011 3.5815 16.0011 7.9996Z" fill="url(#paint1_radial_2237_6110)"/>
<path d="M16.0011 7.9996C16.0011 12.4176 12.4196 15.9992 8.00155 15.9992C3.58355 15.9992 0.00195312 12.4176 0.00195312 7.9996C0.00195312 3.5816 3.58345 0 8.00155 0C12.4196 0 16.0011 3.5815 16.0011 7.9996Z" fill="url(#paint2_radial_2237_6110)" fill-opacity="0.5"/>
<path d="M7.30091 3.86616C7.30087 3.77455 7.31888 3.68383 7.35391 3.59918C7.38894 3.51453 7.4403 3.43762 7.50507 3.37283C7.56983 3.30804 7.64672 3.25664 7.73136 3.22157C7.81599 3.18651 7.9067 3.16846 7.99831 3.16846C8.67251 3.16846 9.21901 3.71496 9.21901 4.38906V6.13546C9.21901 6.14872 9.22162 6.16185 9.2267 6.17411C9.23177 6.18636 9.23921 6.1975 9.24859 6.20687C9.25797 6.21625 9.2691 6.22369 9.28136 6.22877C9.29361 6.23384 9.30675 6.23646 9.32001 6.23646H11.1153C12.1073 6.23646 12.8385 7.16376 12.607 8.12846L12.1498 10.0332C12.0292 10.5358 11.7429 10.9831 11.337 11.3031C10.9311 11.6231 10.4293 11.7971 9.91241 11.7972H6.91801C6.76546 11.7972 6.61915 11.7366 6.51128 11.6287C6.40341 11.5208 6.34281 11.3745 6.34281 11.222V7.73836C6.34281 7.32156 6.43981 6.91056 6.62621 6.53786L6.91181 5.96666C7.16809 5.45408 7.30138 4.88883 7.30111 4.31576L7.30091 3.86616ZM4.36651 6.99996C4.16311 6.99998 3.96804 7.0808 3.82422 7.22464C3.6804 7.36848 3.59961 7.56355 3.59961 7.76696V11.0268C3.59961 11.2302 3.68042 11.4253 3.82426 11.5691C3.9681 11.7129 4.16319 11.7938 4.36661 11.7938H5.13361C5.23532 11.7938 5.33286 11.7534 5.40478 11.6814C5.4767 11.6095 5.51711 11.512 5.51711 11.4103V7.38346C5.51711 7.33309 5.50719 7.28321 5.48791 7.23667C5.46863 7.19014 5.44037 7.14786 5.40475 7.11225C5.36913 7.07663 5.32684 7.04839 5.2803 7.02912C5.23376 7.00985 5.18388 6.99994 5.13351 6.99996H4.36651Z" fill="white"/>
</g>
<defs>
<linearGradient id="paint0_linear_2237_6110" x1="2.39985" y1="2.3999" x2="13.5993" y2="13.5993" gradientUnits="userSpaceOnUse">
<stop stop-color="#02ADFC"/>
<stop offset="0.5" stop-color="#0866FF"/>
<stop offset="1" stop-color="#2B7EFF"/>
</linearGradient>
<radialGradient id="paint1_radial_2237_6110" cx="0" cy="0" r="1" gradientUnits="userSpaceOnUse" gradientTransform="translate(8.00145 7.9995) rotate(90) scale(7.99958)">
<stop offset="0.5618" stop-color="#0866FF" stop-opacity="0"/>
<stop offset="1" stop-color="#0866FF" stop-opacity="0.1"/>
</radialGradient>
<radialGradient id="paint2_radial_2237_6110" cx="0" cy="0" r="1" gradientUnits="userSpaceOnUse" gradientTransform="translate(6.39963 6.39963) rotate(45) scale(10.1818)">
<stop offset="0.3143" stop-color="#02ADFC"/>
<stop offset="1" stop-color="#02ADFC" stop-opacity="0"/>
</radialGradient>
<clipPath id="clip0_2237_6110">
<rect width="16" height="16" fill="white"/>
</clipPath>
</defs>
</svg>
