<svg width="28" height="16" viewBox="0 0 28 16" fill="none" xmlns="http://www.w3.org/2000/svg"><g clip-path="url(#clip0_2237_5530)"><path d="M16.0006 7.9996C16.0006 12.4176 12.4191 15.9992 8.00106 15.9992C3.58306 15.9992 0.00146484 12.4176 0.00146484 7.9996C0.00146484 3.5816 3.58296 0 8.00106 0C12.4191 0 16.0006 3.5815 16.0006 7.9996Z" fill="url(#paint0_linear_2237_5530)"/><path d="M16.0006 7.9996C16.0006 12.4176 12.4191 15.9992 8.00106 15.9992C3.58306 15.9992 0.00146484 12.4176 0.00146484 7.9996C0.00146484 3.5816 3.58296 0 8.00106 0C12.4191 0 16.0006 3.5815 16.0006 7.9996Z" fill="url(#paint1_radial_2237_5530)"/><path d="M16.0006 7.9996C16.0006 12.4176 12.4191 15.9992 8.00106 15.9992C3.58306 15.9992 0.00146484 12.4176 0.00146484 7.9996C0.00146484 3.5816 3.58296 0 8.00106 0C12.4191 0 16.0006 3.5815 16.0006 7.9996Z" fill="url(#paint2_radial_2237_5530)" fill-opacity="0.5"/><path d="M7.30042 3.86634C7.30038 3.77473 7.31839 3.68401 7.35342 3.59936C7.38845 3.51472 7.43982 3.4378 7.50458 3.37301C7.56934 3.30822 7.64624 3.25682 7.73087 3.22176C7.8155 3.18669 7.90621 3.16864 7.99782 3.16864C8.67202 3.16864 9.21852 3.71514 9.21852 4.38924V6.13564C9.21852 6.1489 9.22113 6.16204 9.22621 6.17429C9.23129 6.18654 9.23872 6.19768 9.2481 6.20706C9.25748 6.21644 9.26862 6.22388 9.28087 6.22895C9.29312 6.23403 9.30626 6.23664 9.31952 6.23664H11.1148C12.1068 6.23664 12.838 7.16394 12.6065 8.12864L12.1493 10.0333C12.0287 10.5359 11.7424 10.9833 11.3365 11.3033C10.9306 11.6233 10.4288 11.7973 9.91192 11.7973H6.91752C6.76497 11.7973 6.61866 11.7367 6.51079 11.6289C6.40292 11.521 6.34232 11.3747 6.34232 11.2221V7.73854C6.34232 7.32174 6.43932 6.91074 6.62572 6.53804L6.91132 5.96684C7.1676 5.45426 7.30089 4.88901 7.30062 4.31594L7.30042 3.86634ZM4.36602 7.00014C4.16262 7.00017 3.96755 7.08099 3.82373 7.22482C3.67992 7.36866 3.59912 7.56374 3.59912 7.76714V11.0269C3.59912 11.2304 3.67993 11.4254 3.82377 11.5693C3.96761 11.7131 4.1627 11.7939 4.36612 11.7939H5.13312C5.23483 11.7939 5.33238 11.7535 5.4043 11.6816C5.47622 11.6097 5.51662 11.5121 5.51662 11.4104V7.38364C5.51662 7.33327 5.5067 7.28339 5.48742 7.23686C5.46814 7.19032 5.43988 7.14804 5.40426 7.11243C5.36864 7.07682 5.32635 7.04857 5.27981 7.0293C5.23327 7.01004 5.18339 7.00013 5.13302 7.00014H4.36602Z" fill="white"/></g><g clip-path="url(#clip1_2237_5530)"><mask id="mask0_2237_5530" style="mask-type:luminance" maskUnits="userSpaceOnUse" x="11" y="0" width="17" height="16"><path d="M11.9985 0.000671387H27.9977V15.9991H11.9985V0.000671387Z" fill="white"/></mask><g mask="url(#mask0_2237_5530)"><path d="M27.9958 7.99977C27.9958 12.4177 24.4147 15.9991 19.9972 15.9991C15.5796 15.9991 11.9985 12.4177 11.9985 7.99987C11.9985 3.58197 15.5796 0.000671387 19.9972 0.000671387C24.4147 0.000671387 27.9958 3.58187 27.9958 7.99977Z" fill="url(#paint3_linear_2237_5530)"/><path d="M19.999 0.500061C24.1402 0.500289 27.497 3.85762 27.4971 7.99908C27.4971 12.1406 24.1403 15.4979 19.999 15.4981C15.8577 15.4981 12.5 12.1408 12.5 7.99908C12.5001 3.85747 15.8578 0.500061 19.999 0.500061Z" fill="url(#paint4_radial_2237_5530)" stroke="#F0F2F5"/><path d="M19.9986 5.90812C19.6458 5.02362 18.805 4.40112 17.8238 4.40112C16.3915 4.40112 15.3984 5.72912 15.3984 7.08082C15.3984 9.35262 17.7922 11.0902 19.48 12.2397C19.7968 12.4554 20.2005 12.4554 20.5173 12.2397C22.2051 11.0902 24.5988 9.35262 24.5988 7.08072C24.5988 5.72902 23.6058 4.40112 22.1734 4.40112C21.1923 4.40112 20.3514 5.02362 19.9986 5.90812Z" fill="white"/></g></g><defs><linearGradient id="paint0_linear_2237_5530" x1="2.39936" y1="2.3999" x2="13.5988" y2="13.5993" gradientUnits="userSpaceOnUse"><stop stop-color="#02ADFC"/><stop offset="0.5" stop-color="#0866FF"/><stop offset="1" stop-color="#2B7EFF"/></linearGradient><radialGradient id="paint1_radial_2237_5530" cx="0" cy="0" r="1" gradientUnits="userSpaceOnUse" gradientTransform="translate(8.00096 7.9995) rotate(90) scale(7.99958 7.99958)"><stop offset="0.5618" stop-color="#0866FF" stop-opacity="0"/><stop offset="1" stop-color="#0866FF" stop-opacity="0.1"/></radialGradient><radialGradient id="paint2_radial_2237_5530" cx="0" cy="0" r="1" gradientUnits="userSpaceOnUse" gradientTransform="translate(6.39914 6.39963) rotate(45) scale(10.1818)"><stop offset="0.3143" stop-color="#02ADFC"/><stop offset="1" stop-color="#02ADFC" stop-opacity="0"/></radialGradient><linearGradient id="paint3_linear_2237_5530" x1="14.3981" y1="2.40047" x2="25.597" y2="13.5991" gradientUnits="userSpaceOnUse"><stop stop-color="#FF74AE"/><stop offset="0.5001" stop-color="#FA2E3E"/><stop offset="1" stop-color="#FF5758"/></linearGradient><radialGradient id="paint4_radial_2237_5530" cx="0" cy="0" r="1" gradientUnits="userSpaceOnUse" gradientTransform="translate(19.9986 7.99926) rotate(90) scale(7.9992 7.99863)"><stop offset="0.5637" stop-color="#E11731" stop-opacity="0"/><stop offset="1" stop-color="#E11731" stop-opacity="0.1"/></radialGradient><clipPath id="clip0_2237_5530"><rect width="16" height="16" fill="white"/></clipPath><clipPath id="clip1_2237_5530"><rect width="16" height="16" fill="white" transform="translate(12)"/></clipPath></defs></svg>