<svg width="16" height="16" viewBox="0 0 16 16" fill="none" xmlns="http://www.w3.org/2000/svg">
<path d="M7.31651 1.72254C7.31646 1.58452 7.34233 1.44785 7.39264 1.32032C7.44296 1.19279 7.51674 1.0769 7.60976 0.97929C7.70279 0.881676 7.81324 0.804241 7.9348 0.75141C8.05637 0.698579 8.18667 0.671387 8.31825 0.671387C9.28667 0.671387 10.0717 1.49474 10.0717 2.51034V5.14147C10.0717 5.16145 10.0754 5.18124 10.0827 5.1997C10.09 5.21816 10.1007 5.23494 10.1141 5.24907C10.1276 5.2632 10.1436 5.27441 10.1612 5.28205C10.1788 5.2897 10.1977 5.29364 10.2167 5.29364H12.7955C14.2204 5.29364 15.2707 6.69071 14.9382 8.14412L14.2814 11.0137C14.1082 11.771 13.6969 12.4449 13.1139 12.927C12.5309 13.4092 11.8101 13.6714 11.0676 13.6714H6.76652C6.5474 13.6714 6.33724 13.5801 6.1823 13.4176C6.02736 13.255 5.94031 13.0346 5.94031 12.8048V7.5564C5.94031 6.92845 6.07964 6.30923 6.34738 5.74773L6.75761 4.88716C7.12573 4.11491 7.31719 3.2633 7.3168 2.39991L7.31651 1.72254ZM3.10157 6.44392C2.8094 6.44396 2.52921 6.56573 2.32263 6.78243C2.11605 6.99914 2 7.29304 2 7.59949V12.5107C2 12.8172 2.11607 13.1111 2.32268 13.3278C2.52929 13.5445 2.80952 13.6663 3.10171 13.6663H4.20342C4.34952 13.6663 4.48963 13.6054 4.59294 13.497C4.69624 13.3887 4.75428 13.2417 4.75428 13.0885V7.02171C4.75428 6.94582 4.74003 6.87067 4.71233 6.80056C4.68464 6.73045 4.64405 6.66675 4.59289 6.6131C4.54172 6.55945 4.48098 6.51689 4.41413 6.48786C4.34728 6.45884 4.27563 6.4439 4.20328 6.44392H3.10157Z" fill="currentColor"/>
</svg>
